<svg width="88" height="86" viewBox="0 0 88 86" fill="none" xmlns="http://www.w3.org/2000/svg">
<path d="M73 10L44 0L59.5 26.5L88 37L73 10Z" fill="#ACCC9E"/>
<path d="M44 0L15 10L34 17L44 0Z" fill="#93BC80"/>
<path d="M34 17L44 0L59.5 26.5L34 17Z" fill="#C6DBBC"/>
<path d="M20.5 40.5L15 10L34 17L20.5 40.5Z" fill="#A8CA99"/>
<path d="M88 37L59.5 26.5L72.5 49.5L88 37Z" fill="#D4E4CD"/>
<path d="M0 37L15 10L20.5 40.5L5 67L0 37Z" fill="#87B672"/>
<path d="M5 67L20.5 40.5L25 67H5Z" fill="#A9CA9A"/>
<path d="M25 67H5L28 86L25 67Z" fill="#87B672"/>
<path d="M51 67H25L28 86L51 67Z" fill="#A9CA9A"/>
<path d="M51 67L28 86H60L83 67H51Z" fill="#A4C794"/>
<path d="M72.5 49.5L51 67H83L72.5 49.5Z" fill="#F0F6EE"/>
<path d="M72.5 49.5L88 37L83 67L72.5 49.5Z" fill="#CADDC1"/>
<path d="M20.5 40.5L34 17L59.5 26.5L72.5 49.5L51 67H25L20.5 40.5Z" fill="white"/>
</svg>
